<?xml version="1.0" encoding="UTF-8" standalone="no"?>
<!DOCTYPE svg PUBLIC "-//W3C//DTD SVG 20010904//EN"
              "http://www.w3.org/TR/2001/REC-SVG-20010904/DTD/svg10.dtd">

<svg xmlns="http://www.w3.org/2000/svg"
     width="7in" height="5in"
     viewBox="0 0 2100 1500">
  <path id="Unnamed #4"
        fill="none" stroke="rgb(35, 131, 55)" stroke-width="10"
        d="M 843.00,1937.15
           C 1224.00,1721.65 1293.00,1122.47 1596.00,1482.50
             1809.00,1816.26 1779.00,1913.50 1956.00,1779.47M 834.00,1826.15
           C 1215.00,1610.65 1284.00,1011.47 1587.00,1371.50
             1800.00,1705.26 1770.00,1802.50 1947.00,1668.47M 834.00,1739.15
           C 1215.00,1523.65 1284.00,924.47 1587.00,1284.50
             1800.00,1618.26 1770.00,1715.50 1947.00,1581.47M 837.00,1704.00
           C 1218.00,1458.00 1287.00,774.00 1590.00,1185.00
             1803.00,1566.00 1773.00,1677.00 1950.00,1524.00M 2457.00,-130.13
           C 2196.00,349.07 1761.00,562.08 2034.00,687.81
             2331.00,799.31 2586.00,259.49 2655.00,400.06
             2691.00,557.88 2115.00,1546.58 2109.00,1556.07M 2382.00,-207.00
           C 2121.00,375.97 1686.00,635.11 1959.00,788.06
             2256.00,923.71 2511.00,267.00 2580.00,438.00
             2616.00,630.00 2040.00,1832.80 2034.00,1844.34M 2355.00,-372.00
           C 2094.00,210.97 1584.00,665.11 1857.00,818.06
             2154.00,953.71 2280.00,810.00 2349.00,981.00
             2385.00,1173.00 1938.00,1862.80 1932.00,1874.34M 2202.00,-366.00
           C 1941.00,216.97 1494.00,707.11 1767.00,860.06
             2064.00,995.71 2148.00,1032.00 2217.00,1203.00
             2253.00,1395.00 1848.00,1904.80 1842.00,1916.34M 2148.00,-471.79
           C 1887.00,111.19 1383.00,746.11 1656.00,899.06
             1953.00,1034.71 2259.00,1092.43 2151.00,1285.79
             2028.00,1583.05 1737.00,1943.80 1731.00,1955.34M 2046.00,-435.79
           C 1785.00,147.19 1281.00,782.11 1554.00,935.06
             1851.00,1070.71 2157.00,1128.43 2049.00,1321.79
             1926.00,1619.05 1635.00,1979.80 1629.00,1991.34M 1959.00,-453.00
           C 1698.00,153.00 1194.00,813.00 1467.00,972.00
             1764.00,1113.00 2070.00,1173.00 1962.00,1374.00
             1839.00,1683.00 1548.00,2058.00 1542.00,2070.00M 33.00,1863.00
           C 33.00,1863.00 174.00,1188.00 279.00,1185.00
             399.00,1176.00 -57.00,1959.00 -99.00,2049.00M 15.00,1671.00
           C 15.00,1671.00 147.00,1101.00 321.00,1089.00
             471.00,1083.00 54.00,1896.00 12.00,1986.00M -51.00,1656.00
           C -51.00,1656.00 187.20,862.76 576.00,819.00
             818.08,789.83 942.00,792.00 873.00,906.00
             609.00,1098.00 399.80,1106.24 324.00,1449.00
             250.64,1809.99 220.09,1849.45 193.19,1836.69M -33.00,1329.00
           C -33.00,1329.00 346.20,631.76 735.00,588.00
             977.08,558.83 1177.05,839.79 1023.00,951.00
             905.63,1025.75 450.25,1109.01 374.44,1451.77
             301.09,1812.75 301.09,1867.45 274.19,1854.69M -54.00,1218.00
           C -54.00,1218.00 457.74,453.29 885.00,399.00
             1151.03,362.81 1294.29,885.02 1125.00,1023.00
             996.02,1115.74 530.30,1077.74 447.00,1503.00
             366.39,1950.88 311.08,2008.00 281.52,1992.17M -78.00,1071.00
           C -78.00,1071.00 411.00,348.00 888.00,276.00
             1185.00,228.00 1449.00,891.00 1260.00,1074.00
             1116.00,1197.00 537.00,1065.00 444.00,1629.00
             354.00,2223.00 354.00,2313.00 321.00,2292.00M -164.62,286.43
           C 389.90,-10.45 122.76,-584.09 387.88,-405.46M -178.06,333.07
           C 539.43,1.73 193.77,-638.50 536.81,-439.13M -153.00,357.00
           C 669.00,3.00 273.00,-681.00 666.00,-468.00M -103.20,511.98
           C 440.22,9.00 708.45,-140.64 963.00,-177.00
             1217.55,-213.36 1217.89,193.92 1461.00,-0.00
             1704.11,-193.92 912.00,-771.03 912.00,-768.00M -102.00,576.00
           C 450.90,78.00 674.01,-63.00 933.00,-99.00
             1191.99,-135.00 1211.19,258.00 1458.54,66.00
             1705.89,-126.00 1437.00,-846.00 1437.00,-843.00M -40.47,666.00
           C 512.43,168.00 662.01,78.00 921.00,42.00
             1179.99,6.00 1199.19,399.00 1446.54,207.00
             1693.89,15.00 1714.26,-672.00 1714.26,-669.00M -63.00,756.00
           C 507.00,258.00 594.00,198.00 861.00,162.00
             1128.00,126.00 1215.00,489.00 1470.00,297.00
             1725.00,105.00 1833.00,-573.00 1833.00,-570.00" />
</svg>
